# xmcd
#
# Track frame offsets:
#	182
#	12690
#	26662
#	39082
#	52970
#	64732
#	75900
#	87297
#	102220
#	115900
#	126230
#	138605
#
# Disc length: 2041 seconds
#
# Revision: 0
# Processed by: cddbd v1.5.1PL0 Copyright (c) Steve Scherf et al.
# Submitted via: dBpowerAMP V4.0
#
DISCID=9607f70c
DTITLE=Sonny Terry and Brownie McGhee - Home town blues
DYEAR=1900
DGENRE=Blues
TTITLE0=Mean old Frisco
TTITLE1=Man aint't nothin' but a fool
TTITLE2=The woman is killing me
TTITLE3=Crying the blues
TTITLE4=Meet you in the morning
TTITLE5=Stranger blues
TTITLE6=Feel so good
TTITLE7=Bad blood
TTITLE8=lightnin's blues
TTITLE9=Forgive me
TTITLE10=Sittin' on top pf the world
TTITLE11=Goin' down slow
EXTD=
EXTT0=
EXTT1=
EXTT2=
EXTT3=
EXTT4=
EXTT5=
EXTT6=
EXTT7=
EXTT8=
EXTT9=
EXTT10=
EXTT11=
PLAYORDER=
